<svg width="186" height="24" viewBox="0 0 186 24" fill="none" xmlns="http://www.w3.org/2000/svg">
<path d="M0.519625 23V0.599998H5.38363L15.5916 13.24H12.5196L22.7276 0.599998H27.5916V23H22.3116V15.704C22.3116 13.9333 22.3543 12.2693 22.4396 10.712C22.525 9.15467 22.6956 7.56533 22.9516 5.944L23.4636 7.736L15.1116 17.56H12.9996L4.55163 7.672L5.15963 5.944C5.41563 7.56533 5.58629 9.15467 5.67163 10.712C5.75696 12.2693 5.79963 13.9333 5.79963 15.704V23H0.519625ZM50.2294 23.192C47.84 23.192 45.76 22.7227 43.9894 21.784C42.2187 20.8453 40.8427 19.5547 39.8614 17.912C38.88 16.2693 38.3894 14.392 38.3894 12.28V0.599998H43.8934V12.152C43.8934 13.368 44.16 14.4453 44.6934 15.384C45.248 16.3227 46.0054 17.0587 46.9654 17.592C47.9254 18.104 49.0134 18.36 50.2294 18.36C51.488 18.36 52.5974 18.104 53.5574 17.592C54.5387 17.0587 55.3067 16.3227 55.8614 15.384C56.4374 14.4453 56.7254 13.368 56.7254 12.152V0.599998H62.0374V12.28C62.0374 14.392 61.5467 16.2693 60.5654 17.912C59.584 19.5547 58.208 20.8453 56.4374 21.784C54.6667 22.7227 52.5974 23.192 50.2294 23.192ZM82.5996 23.32C80.7863 23.32 79.1223 23.16 77.6076 22.84C76.093 22.4987 74.717 22.0507 73.4796 21.496C72.2636 20.92 71.1543 20.2693 70.1516 19.544L72.6476 15.192C74.397 16.4293 76.157 17.336 77.9276 17.912C79.6983 18.4667 81.3943 18.744 83.0156 18.744C83.7196 18.744 84.4556 18.68 85.2236 18.552C85.9916 18.4027 86.6316 18.1573 87.1436 17.816C87.677 17.4533 87.9436 16.9627 87.9436 16.344C87.9436 15.9813 87.8156 15.6827 87.5596 15.448C87.325 15.192 86.9943 14.9893 86.5676 14.84C86.141 14.6907 85.6396 14.5733 85.0636 14.488C84.509 14.3813 83.901 14.3067 83.2396 14.264C82.5996 14.2 81.949 14.136 81.2876 14.072C79.7943 13.9227 78.4396 13.6773 77.2236 13.336C76.0076 12.9947 74.9623 12.5573 74.0876 12.024C73.2343 11.4693 72.573 10.7973 72.1036 10.008C71.6343 9.21867 71.3996 8.312 71.3996 7.288C71.3996 6.136 71.677 5.112 72.2316 4.216C72.8076 3.32 73.6076 2.57333 74.6316 1.976C75.6556 1.35733 76.829 0.887999 78.1516 0.567999C79.4956 0.247999 80.9356 0.0879993 82.4716 0.0879993C84.0716 0.0879993 85.5116 0.237333 86.7916 0.535999C88.093 0.813333 89.2343 1.19733 90.2156 1.688C91.2183 2.17867 92.0503 2.712 92.7116 3.288L90.0876 7.064C89.4263 6.57333 88.6583 6.15733 87.7836 5.816C86.9303 5.45333 86.0236 5.176 85.0636 4.984C84.125 4.792 83.1863 4.696 82.2476 4.696C81.2876 4.696 80.4236 4.78133 79.6556 4.952C78.909 5.10133 78.3116 5.336 77.8636 5.656C77.437 5.95467 77.2236 6.34933 77.2236 6.84C77.2236 7.288 77.405 7.66133 77.7676 7.96C78.1516 8.23733 78.6423 8.46133 79.2396 8.632C79.837 8.78133 80.4983 8.89867 81.2236 8.984C81.949 9.06933 82.653 9.15467 83.3356 9.24C84.6156 9.368 85.8743 9.53867 87.1116 9.752C88.349 9.944 89.4583 10.264 90.4396 10.712C91.4423 11.1387 92.2423 11.7573 92.8396 12.568C93.437 13.3573 93.7356 14.4347 93.7356 15.8C93.7356 17.3787 93.2556 18.7333 92.2956 19.864C91.3356 20.9733 90.013 21.8267 88.3276 22.424C86.6636 23.0213 84.7543 23.32 82.5996 23.32ZM103.503 23V18.2H109.519V5.4H103.503V0.599998H121.007V5.4H114.959V18.2H121.007V23H103.503ZM132.645 23V0.599998H138.085V23H132.645ZM134.789 14.744V10.2H150.597V14.744H134.789ZM135.237 5.4V0.599998H151.909V5.4H135.237ZM169.736 23V12.984L170.376 15.448L158.344 0.599998H165.16L173.896 11.896H171.144L179.656 0.599998H185.96L175.048 14.584L175.208 12.728V23H169.736Z" fill="white"/>
</svg>
